<?xml version="1.0" encoding="UTF-8"?><svg id="Layer_1" xmlns="http://www.w3.org/2000/svg" xmlns:xlink="http://www.w3.org/1999/xlink" viewBox="0 0 221 64"><defs><style>.cls-1{fill:url(#linear-gradient-2);}.cls-2{fill:#fff;}.cls-3{fill:#2b1b9a;}.cls-4{fill:#67b6f4;}.cls-5{fill:url(#linear-gradient-3);}.cls-6{fill:url(#linear-gradient);}</style><linearGradient id="linear-gradient" x1="76.14" y1="12.12" x2="-42.68" y2="91.71" gradientTransform="matrix(1, 0, 0, 1, 0, 0)" gradientUnits="userSpaceOnUse"><stop offset="0" stop-color="#2b1b9a"/><stop offset=".16" stop-color="#322ea5"/><stop offset=".49" stop-color="#455fc1"/><stop offset=".96" stop-color="#64aeef"/><stop offset="1" stop-color="#67b6f4"/></linearGradient><linearGradient id="linear-gradient-2" x1="2.86" y1="32.05" x2="61.71" y2=".85" xlink:href="#linear-gradient"/><linearGradient id="linear-gradient-3" x1="18.2" y1="62.64" x2="87.14" y2="32.94" gradientTransform="matrix(1, 0, 0, 1, 0, 0)" gradientUnits="userSpaceOnUse"><stop offset="0" stop-color="#67b6f4"/><stop offset=".04" stop-color="#64aeef"/><stop offset=".51" stop-color="#455fc1"/><stop offset=".84" stop-color="#322ea5"/><stop offset="1" stop-color="#2b1b9a"/></linearGradient></defs><g><path class="cls-6" d="M61.94,20.84l2.85-2.82,10.77,10.6h-2.13v6.7s-14.38,22-50.42,11.99V29.6h-2.56l11.57-11.49,3.25,3.12-6.57,6.77h4.21l15.71-16.16,16.24,16.29h4.3l-7.24-7.29Z"/><g><path class="cls-4" d="M47.51,38.96v1.82c0,2.68-2.17,4.84-4.84,4.84v-6.66h4.84Z"/><path class="cls-4" d="M47.51,22.69v7.22c0,2.1-1.7,3.81-3.81,3.81h-1.04v-6.19c0-2.67,2.17-4.84,4.84-4.84Z"/><path class="cls-4" d="M56.77,31.22c-.37,6.25-6.79,7.74-9.26,7.74h-8.27c.85-5.39,4.93-4.8,6.79-4.8,2.73,0,5.83-.28,5.87-3.26,.04-2.85-2.66-3.49-4.38-3.49v-4.71c3.6-.12,9.64,2.19,9.26,8.52Z"/><path class="cls-2" d="M42.67,45.9h-.28v-7.21h5.4v2.09c0,2.82-2.3,5.12-5.12,5.12Zm.28-6.66v6.1c2.39-.14,4.29-2.13,4.29-4.56v-1.54h-4.29Z"/><path class="cls-2" d="M43.71,34h-1.31v-6.46c0-2.82,2.3-5.12,5.12-5.12h.28v7.5c0,2.25-1.83,4.08-4.08,4.08Zm-.76-.55h.76c1.95,0,3.53-1.58,3.53-3.53v-6.94c-2.39,.14-4.29,2.13-4.29,4.56v5.91Z"/><path class="cls-2" d="M47.51,39.24h-8.6l.05-.32c.82-5.18,4.55-5.09,6.56-5.04,.18,0,.35,0,.5,0,2.88,0,5.56-.36,5.59-2.99,.01-.86-.25-1.56-.77-2.09-1-1.01-2.67-1.12-3.34-1.12h-.28v-5.26h.27c2.24-.09,5.41,.77,7.45,2.87,1.53,1.57,2.24,3.57,2.1,5.94h0c-.39,6.53-7.18,8-9.53,8Zm-7.95-.55h7.95c2.21,0,8.62-1.37,8.98-7.48h0c.13-2.21-.52-4.07-1.94-5.52-1.84-1.89-4.67-2.71-6.76-2.71v4.17c.86,.03,2.44,.25,3.46,1.28,.63,.63,.94,1.47,.93,2.48-.05,3.54-4.17,3.54-6.15,3.54-.16,0-.33,0-.52,0-1.92-.05-5.11-.12-5.94,4.25Z"/></g><path class="cls-1" d="M6.4,40.63c-.45-.74-.78-1.56-1.03-2.4-.25-.85-.41-1.73-.49-2.62-.09-.89-.1-1.78-.06-2.68,.04-.9,.16-1.79,.3-2.68,.15-.89,.38-1.76,.62-2.63l.2-.65c.07-.22,.15-.43,.22-.64,.15-.43,.32-.85,.48-1.27,.35-.84,.73-1.66,1.17-2.46,.43-.8,.89-1.59,1.4-2.35,1.02-1.51,2.16-2.95,3.43-4.26,1.27-1.32,2.66-2.52,4.13-3.6,2.95-2.17,6.23-3.84,9.65-5.03,3.41-1.21,6.96-1.91,10.5-2.26,1.77-.16,3.54-.24,5.31-.23,1.76,.02,3.52,.1,5.26,.29,1.74,.17,3.47,.42,5.18,.74,.85,.17,1.71,.32,2.55,.53l1.26,.3,1.26,.33c.84,.22,1.66,.47,2.49,.72,.41,.12,.82,.26,1.23,.4,.41,.13,.82,.28,1.22,.42,.81,.29,1.61,.61,2.41,.92,.79,.33,1.59,.67,2.37,1.03-.86-.05-1.71-.13-2.57-.2l-2.55-.21c-1.69-.12-3.38-.26-5.05-.35l-1.26-.07-1.25-.05c-.42,0-.83-.04-1.25-.05l-1.25-.03c-.42-.02-.83,0-1.25-.02h-3.1l-.62,.02-1.23,.03-1.23,.07-.61,.03-.61,.04-1.22,.09c-1.62,.14-3.24,.33-4.83,.57-3.18,.51-6.31,1.22-9.29,2.27-2.99,1.04-5.84,2.4-8.46,4.1-2.63,1.7-5.02,3.75-7.08,6.13-2.05,2.38-3.77,5.1-4.97,8.09-.6,1.49-1.06,3.05-1.33,4.66-.27,1.61-.34,3.28-.04,4.98Z"/><path class="cls-5" d="M24.93,52.88c3.79,.69,7.61,1.08,11.43,1.16,1.91,.05,3.82,.02,5.71-.08,1.9-.09,3.79-.25,5.66-.49,1.87-.22,3.73-.52,5.56-.9,1.83-.37,3.64-.82,5.41-1.36,3.54-1.06,6.87-2.65,9.8-4.53,2.94-1.89,7.48-5.18,10.4-10.11,4.43-7.48,2.87-16.2,2.87-16.2,0,0,4.23,4.12,4.93,12.04,.17,2.26-.09,4.6-.73,6.87-.64,2.27-1.68,4.44-3.02,6.36-1.34,1.93-2.96,3.62-4.73,5.03-1.78,1.41-3.71,2.54-5.69,3.46-.5,.22-.99,.45-1.5,.65-.5,.2-1,.41-1.51,.59l-.76,.27c-.25,.09-.51,.17-.76,.25l-.76,.25-.76,.23-.76,.22-.76,.2-.76,.2-.76,.18-.76,.19c-.25,.06-.51,.11-.76,.17-.51,.11-1.02,.23-1.53,.32-8.15,1.65-16.39,1.65-24.38,.45-2-.31-3.98-.7-5.93-1.17-1.96-.47-3.9-1-5.79-1.65-6.05-2.11-11-5.6-11-5.6,0,0,6.13,2.2,11.67,3.01Z"/></g><g><g><path class="cls-3" d="M111.04,22.21c-.28,.58-.66,1.07-1.14,1.46-.49,.39-1.05,.68-1.7,.88-.65,.2-1.35,.29-2.09,.29h-2.21v3.97h-2.91V15.57h5.41c.79,0,1.5,.11,2.13,.33,.62,.22,1.15,.53,1.59,.94,.44,.4,.77,.89,1,1.45,.23,.56,.35,1.18,.35,1.86v.04c0,.77-.14,1.44-.42,2.02Zm-2.54-2.01c0-.66-.21-1.15-.63-1.49-.42-.34-1-.51-1.73-.51h-2.25v4.05h2.31c.73,0,1.3-.19,1.7-.58,.4-.38,.61-.86,.61-1.43v-.04Z"/><path class="cls-3" d="M119.73,28.81v-5.64c0-.68-.15-1.19-.45-1.54-.3-.35-.73-.52-1.29-.52s-.99,.17-1.32,.52c-.32,.35-.48,.86-.48,1.54v5.64h-2.88V15h2.88v5.12c.16-.22,.34-.42,.54-.62,.2-.2,.41-.37,.65-.52,.24-.15,.5-.27,.79-.36,.29-.09,.62-.13,.98-.13,1.1,0,1.95,.33,2.54,1,.6,.67,.9,1.59,.9,2.76v6.57h-2.88Z"/><path class="cls-3" d="M135.17,25.81c-.28,.64-.66,1.2-1.15,1.67-.49,.48-1.07,.86-1.74,1.14s-1.4,.42-2.19,.42-1.51-.14-2.18-.41c-.67-.27-1.25-.64-1.73-1.12-.49-.47-.87-1.03-1.14-1.67-.28-.64-.42-1.32-.42-2.05v-.04c0-.73,.14-1.42,.42-2.05,.28-.64,.66-1.2,1.15-1.67,.49-.48,1.07-.86,1.74-1.14,.67-.28,1.4-.42,2.2-.42s1.51,.14,2.18,.41c.67,.27,1.25,.64,1.73,1.12,.49,.47,.87,1.03,1.14,1.66,.28,.64,.42,1.32,.42,2.05v.04c0,.73-.14,1.42-.42,2.05Zm-2.42-2.05c0-.38-.06-.73-.19-1.07-.13-.33-.31-.63-.55-.89-.24-.26-.52-.46-.85-.62-.33-.15-.69-.23-1.08-.23-.42,0-.79,.07-1.11,.22-.32,.15-.6,.34-.82,.6-.23,.25-.4,.55-.52,.88-.12,.33-.18,.69-.18,1.07v.04c0,.38,.06,.73,.19,1.07,.13,.33,.31,.63,.55,.89,.24,.26,.52,.46,.84,.62,.32,.15,.68,.23,1.09,.23s.78-.07,1.11-.22c.32-.14,.6-.34,.82-.6,.23-.25,.4-.55,.52-.88,.12-.33,.18-.69,.18-1.07v-.04Z"/><path class="cls-3" d="M142.36,28.82c-.37,.11-.79,.16-1.27,.16-.44,0-.84-.05-1.2-.14-.36-.1-.67-.26-.93-.5-.26-.24-.46-.55-.61-.94-.15-.38-.22-.87-.22-1.47v-4.81h-1.21v-2.46h1.21v-2.59h2.88v2.59h2.38v2.46h-2.38v4.33c0,.66,.31,.98,.93,.98,.5,0,.98-.12,1.42-.36v2.31c-.3,.18-.64,.32-1,.43Z"/><path class="cls-3" d="M155.58,25.81c-.28,.64-.66,1.2-1.15,1.67-.49,.48-1.07,.86-1.74,1.14s-1.4,.42-2.19,.42-1.51-.14-2.18-.41c-.67-.27-1.25-.64-1.73-1.12-.49-.47-.87-1.03-1.14-1.67-.28-.64-.42-1.32-.42-2.05v-.04c0-.73,.14-1.42,.42-2.05,.28-.64,.66-1.2,1.15-1.67,.49-.48,1.07-.86,1.74-1.14,.67-.28,1.4-.42,2.2-.42s1.51,.14,2.18,.41c.67,.27,1.25,.64,1.73,1.12,.49,.47,.87,1.03,1.14,1.66,.28,.64,.42,1.32,.42,2.05v.04c0,.73-.14,1.42-.42,2.05Zm-2.42-2.05c0-.38-.06-.73-.19-1.07-.13-.33-.31-.63-.55-.89-.24-.26-.52-.46-.85-.62-.33-.15-.69-.23-1.08-.23-.42,0-.79,.07-1.11,.22-.32,.15-.6,.34-.82,.6-.23,.25-.4,.55-.52,.88-.12,.33-.18,.69-.18,1.07v.04c0,.38,.06,.73,.19,1.07,.13,.33,.31,.63,.55,.89,.24,.26,.52,.46,.84,.62,.32,.15,.68,.23,1.09,.23s.78-.07,1.11-.22c.32-.14,.6-.34,.82-.6,.23-.25,.4-.55,.52-.88,.12-.33,.18-.69,.18-1.07v-.04Z"/><path class="cls-3" d="M164.06,28.81V15.57h9.97v2.59h-7.1v2.69h6.24v2.59h-6.24v2.78h7.19v2.59h-10.07Z"/><path class="cls-3" d="M183.76,28.81v-1.44c-.35,.48-.78,.87-1.28,1.17-.5,.31-1.13,.46-1.88,.46-.59,0-1.17-.11-1.72-.34-.56-.23-1.05-.56-1.48-1.01-.43-.45-.77-1-1.03-1.65-.26-.65-.39-1.4-.39-2.24v-.04c0-.85,.13-1.59,.39-2.24,.26-.65,.6-1.2,1.02-1.65,.42-.45,.91-.79,1.47-1.01,.55-.23,1.14-.34,1.74-.34,.77,0,1.4,.15,1.9,.45,.5,.3,.92,.65,1.26,1.05v-4.98h2.88v13.81h-2.88Zm.04-5.09c0-.42-.07-.8-.2-1.15-.13-.35-.31-.65-.53-.89-.22-.25-.48-.44-.78-.57-.3-.13-.62-.2-.96-.2s-.66,.07-.96,.2c-.3,.13-.56,.32-.79,.57-.23,.25-.41,.54-.54,.89-.13,.34-.2,.73-.2,1.16v.04c0,.42,.07,.8,.2,1.15,.13,.35,.31,.65,.54,.9,.23,.25,.49,.44,.79,.57,.3,.13,.62,.2,.96,.2s.66-.07,.96-.2c.3-.13,.55-.32,.78-.57,.22-.25,.4-.55,.53-.9,.13-.35,.2-.73,.2-1.15v-.04Z"/><path class="cls-3" d="M189.27,17.55v-2.55h3.03v2.55h-3.03Zm.08,11.26v-10.14h2.88v10.14h-2.88Z"/><path class="cls-3" d="M199.62,28.82c-.37,.11-.79,.16-1.27,.16-.44,0-.84-.05-1.2-.14-.36-.1-.67-.26-.93-.5-.26-.24-.46-.55-.61-.94-.15-.38-.22-.87-.22-1.47v-4.81h-1.21v-2.46h1.21v-2.59h2.88v2.59h2.38v2.46h-2.38v4.33c0,.66,.31,.98,.93,.98,.5,0,.98-.12,1.42-.36v2.31c-.3,.18-.64,.32-1,.43Z"/><path class="cls-3" d="M209.92,27.2c-.2,.41-.47,.75-.82,1.01-.35,.26-.77,.46-1.24,.6-.47,.13-.98,.2-1.52,.2-.72,0-1.45-.12-2.2-.37-.75-.25-1.47-.63-2.15-1.16l1.23-1.89c.56,.4,1.11,.71,1.66,.91,.55,.2,1.06,.3,1.54,.3,.42,0,.72-.07,.92-.21,.2-.14,.29-.32,.29-.55v-.04c0-.15-.06-.28-.17-.4s-.27-.21-.46-.29c-.2-.08-.42-.16-.67-.24-.25-.08-.52-.16-.8-.25-.35-.1-.71-.22-1.07-.37-.36-.15-.68-.33-.97-.57-.29-.23-.53-.52-.71-.86-.18-.34-.27-.76-.27-1.25v-.04c0-.52,.1-.97,.29-1.37s.46-.73,.79-1.01c.33-.28,.73-.49,1.17-.62,.45-.14,.93-.21,1.45-.21,.64,0,1.3,.1,1.96,.31,.66,.21,1.27,.5,1.83,.86l-1.1,1.99c-.5-.29-1-.52-1.48-.69-.48-.17-.9-.26-1.27-.26s-.62,.07-.79,.2c-.18,.13-.26,.3-.26,.5v.04c0,.14,.06,.26,.17,.37,.11,.11,.26,.21,.45,.3,.19,.09,.41,.19,.65,.27,.25,.09,.51,.18,.79,.26,.35,.11,.71,.25,1.08,.41,.37,.16,.69,.35,.98,.58,.29,.23,.53,.5,.72,.83,.19,.33,.28,.73,.28,1.19v.04c0,.57-.1,1.06-.29,1.47Z"/></g><g><path class="cls-3" d="M135.53,47.62c-.37,.29-.77,.54-1.2,.75-.43,.21-.91,.37-1.43,.47-.52,.11-1.1,.16-1.74,.16-.97,0-1.87-.18-2.71-.53-.83-.35-1.55-.84-2.16-1.45-.61-.61-1.08-1.33-1.42-2.17-.34-.83-.51-1.72-.51-2.67v-.04c0-.95,.17-1.83,.51-2.66,.34-.83,.81-1.55,1.42-2.18,.61-.62,1.33-1.12,2.18-1.48,.84-.36,1.78-.54,2.8-.54,.62,0,1.18,.05,1.69,.15s.97,.24,1.39,.42c.42,.18,.8,.39,1.15,.64,.35,.25,.68,.53,.98,.83l-1.86,2.14c-.52-.47-1.04-.83-1.58-1.1-.54-.26-1.14-.4-1.81-.4-.56,0-1.07,.11-1.54,.32-.47,.21-.88,.51-1.22,.89-.34,.38-.61,.82-.79,1.31-.19,.5-.28,1.03-.28,1.6v.04c0,.57,.09,1.1,.28,1.61,.19,.51,.45,.95,.79,1.32,.33,.38,.74,.68,1.21,.9,.47,.22,.99,.33,1.56,.33,.76,0,1.4-.14,1.92-.42,.52-.28,1.04-.66,1.56-1.14l1.85,1.87c-.34,.37-.69,.69-1.06,.98Z"/><path class="cls-3" d="M148.06,44.34c0,.1-.02,.22-.03,.36h-7.06c.14,.66,.43,1.15,.86,1.49,.43,.33,.97,.5,1.62,.5,.48,0,.91-.08,1.29-.25,.38-.16,.77-.43,1.17-.79l1.65,1.46c-.48,.59-1.06,1.06-1.74,1.39-.68,.33-1.48,.5-2.4,.5-.76,0-1.46-.13-2.11-.38-.65-.25-1.21-.61-1.68-1.08-.47-.47-.84-1.02-1.11-1.66-.27-.64-.4-1.35-.4-2.13v-.04c0-.72,.12-1.4,.37-2.04,.25-.64,.59-1.2,1.03-1.68,.44-.48,.97-.86,1.58-1.14,.61-.28,1.29-.42,2.03-.42,.84,0,1.58,.15,2.19,.45,.62,.3,1.13,.71,1.54,1.22,.41,.51,.71,1.1,.91,1.76,.2,.66,.29,1.35,.29,2.07v.04c0,.14,0,.26,0,.36Zm-3.47-3c-.37-.4-.85-.6-1.46-.6s-1.09,.2-1.47,.59c-.37,.39-.62,.91-.73,1.57h4.33c-.09-.64-.32-1.16-.68-1.56Z"/><path class="cls-3" d="M156.63,48.77v-5.64c0-.68-.15-1.19-.45-1.54-.3-.35-.73-.52-1.29-.52s-.99,.17-1.32,.52c-.32,.35-.48,.86-.48,1.54v5.64h-2.88v-10.14h2.88v1.45c.16-.22,.34-.42,.54-.62,.2-.2,.41-.37,.65-.52,.24-.15,.5-.27,.79-.36,.29-.09,.62-.13,.98-.13,1.1,0,1.95,.33,2.54,1,.6,.67,.9,1.59,.9,2.76v6.57h-2.88Z"/><path class="cls-3" d="M166.69,48.78c-.37,.11-.79,.16-1.27,.16-.44,0-.84-.05-1.2-.14-.36-.09-.67-.26-.93-.5-.26-.24-.46-.55-.61-.94-.15-.38-.22-.87-.22-1.47v-4.81h-1.21v-2.46h1.21v-2.59h2.88v2.59h2.38v2.46h-2.38v4.33c0,.66,.31,.98,.93,.98,.5,0,.98-.12,1.42-.36v2.31c-.3,.18-.64,.32-1,.43Z"/><path class="cls-3" d="M179.31,44.34c0,.1-.02,.22-.03,.36h-7.06c.14,.66,.43,1.15,.86,1.49,.43,.33,.97,.5,1.62,.5,.48,0,.91-.08,1.29-.25,.38-.16,.77-.43,1.17-.79l1.65,1.46c-.48,.59-1.06,1.06-1.74,1.39-.68,.33-1.48,.5-2.4,.5-.76,0-1.46-.13-2.11-.38-.65-.25-1.21-.61-1.68-1.08-.47-.47-.84-1.02-1.11-1.66-.26-.64-.4-1.35-.4-2.13v-.04c0-.72,.12-1.4,.37-2.04,.25-.64,.59-1.2,1.03-1.68,.44-.48,.97-.86,1.58-1.14,.61-.28,1.29-.42,2.03-.42,.84,0,1.58,.15,2.19,.45,.62,.3,1.13,.71,1.54,1.22,.41,.51,.71,1.1,.91,1.76,.2,.66,.29,1.35,.29,2.07v.04c0,.14,0,.26,0,.36Zm-3.47-3c-.37-.4-.85-.6-1.46-.6s-1.09,.2-1.47,.59c-.37,.39-.62,.91-.73,1.57h4.33c-.09-.64-.32-1.16-.68-1.56Z"/><path class="cls-3" d="M187.41,41.45c-.96,0-1.71,.29-2.26,.87-.55,.58-.82,1.48-.82,2.71v3.75h-2.88v-10.14h2.88v2.04c.29-.69,.69-1.25,1.19-1.66,.5-.42,1.19-.61,2.04-.57v3.01h-.15Z"/></g><rect class="cls-3" x="100.97" y="40.8" width="19.1" height="2.7"/><rect class="cls-3" x="191.11" y="40.8" width="19.1" height="2.7"/></g></svg>